<svg xmlns="http://www.w3.org/2000/svg" width="24" height="24" viewBox="0 0 24 24">
    <g fill="none" fill-rule="evenodd">
        <g fill="#212121" fill-rule="nonzero">
            <g>
                <path d="M8 0c1.105 0 2 .895 2 2v14c0 1.105-.895 2-2 2H2c-1.105 0-2-.895-2-2V2C0 .895.895 0 2 0h6zM3 1H2c-.513 0-.936.386-.993.883L1 2v14c0 .513.386.936.883.993L2 17h6c.513 0 .936-.386.993-.883L9 16V2c0-.513-.386-.936-.883-.993L8 1H7v.5c0 .276-.224.5-.5.5h-3c-.276 0-.5-.224-.5-.5V1zm3.5 14c.276 0 .5.224.5.5s-.224.5-.5.5h-3c-.276 0-.5-.224-.5-.5s.224-.5.5-.5h3z" transform="translate(7 3)"/>
            </g>
        </g>
    </g>
</svg>
