<svg xmlns="http://www.w3.org/2000/svg" width="48" height="48" viewBox="0 0 48 48">
    <g fill="none" fill-rule="evenodd">
        <g fill="#000">
            <path d="M23 6v2l-5-.001v7.416l1.618.91C21.62 11.923 26.034 9 31 9c6.904 0 12.5 5.596 12.5 12.5S37.904 34 31 34c-1.391 0-2.753-.228-4.044-.669-.443-.151-.876-.327-1.298-.527-.167-.08-.333-.162-.497-.249l1.493-1.495.217.097c.24.103.484.197.732.281 1.083.37 2.226.562 3.397.562 5.799 0 10.5-4.701 10.5-10.5 0-2.412-.813-4.633-2.18-6.406L14.414 40H25v2l-11.794-.001-1.326-2.295 3.176-3.175L4.999 19.614v-2.167l2.04-3.06-2.04-1.02v-2.684l3.329-1.479L10.465 6H23zm-7 1.999L11.535 8l-1.864 2.796-2.829 1.257 3.118 1.56-3.279 4.917 9.835 16.539L28.16 23.425 16 16.585V7.999zM31 11c-4.23 0-7.984 2.525-9.63 6.31l8.259 4.646 8.324-8.324C36.101 11.994 33.667 11 31 11z"/>
        </g>
    </g>
</svg>
