<svg xmlns="http://www.w3.org/2000/svg" width="48" height="48" viewBox="0 0 48 48">
    <g fill="none" fill-rule="evenodd">
        <g fill="#000">
            <path d="M21.27 7l6.46 3.768L39.019 30h6.36l1.119 1.119-.001.214c-.138 6.588-4.347 10.843-10.301 11.15l-1.862-1.076L30.631 34h2.237l3.241 6.483.218-.013c4.516-.327 7.676-3.36 8.12-8.259l.015-.211H15.73l-6.453-3.764L1 14.602v-2.179L4.451 7h16.82zm-.539 2H5.548l-2.872 4.512 8.046 13.252L16.27 30H36.7L26.269 12.23 20.731 9zM17 12v6.594l-6.021 3.284-.958-1.756L15 17.406V12h2z"/>
        </g>
    </g>
</svg>
