<svg xmlns="http://www.w3.org/2000/svg" width="48" height="48" viewBox="0 0 48 48">
    <g fill="none" fill-rule="evenodd">
        <g fill="#000">
            <path d="M24 7c6.69 0 12.573 3.458 15.958 8.684.834-1.04 2.112-1.684 3.51-1.684 2.414 0 4.384 1.901 4.495 4.288l.004.212h-2l-.005-.164C45.877 17.032 44.792 16 43.467 16c-1.043 0-1.966.645-2.334 1.603l-.036.1C42.317 20.21 43 23.025 43 26c0 5.925-2.732 11.397-7.3 14.97l-.039.03H33.82l-9.845-5.852 1.985-1.146 8.75 5.2.073-.059c3.802-3.12 6.1-7.74 6.213-12.756L41 26c0-.9-.07-1.782-.204-2.644l-.093-.533L9.248 40.934l-2.249-1.299L7 30H4.234L0 27.58v-5.698l3.561-1.781-2.595-4.078L2.134 14h7.129l.19-.23c3.491-4.152 8.602-6.65 14.141-6.766L24 7zm0 2c-5.21 0-10.024 2.35-13.226 6.311l-.237.3-.3.389H3.32l3.118 4.899L2 23.118v3.301L4.767 28H9v10.77l31.192-17.959-.02-.068c-2.183-6.718-8.436-11.602-15.849-11.74L24 9z"/>
        </g>
    </g>
</svg>
