<svg xmlns="http://www.w3.org/2000/svg" width="48" height="48" viewBox="0 0 48 48">
    <g fill="none" fill-rule="evenodd">
        <g fill="#000">
            <path d="M34.374 6.055l1.415 1.414-9.901 9.899 1.415 1.415 1.415 1.414 1.413 1.414 9.9-9.9 1.414 1.415L31.07 23.5h-1.878l-1.889-1.89-1.825 1.826 17.232 17.36-1.42 1.408-17.227-17.353L6.797 42.117l-1.414-1.414L22.654 23.43 9.267 9.945l-.134.198c-1.475 2.258-1.272 5.29.603 7.328l.175.183 7.789 7.632-1.4 1.428-7.796-7.639C5.458 16.03 5.382 11.138 8.276 8h1.879l13.914 14.018 1.82-1.82L24 18.307v-1.88L34.374 6.056zm2.829 2.828l1.414 1.414-6.364 6.364-1.414-1.414 6.364-6.364z"/>
        </g>
    </g>
</svg>
