<svg xmlns="http://www.w3.org/2000/svg" width="48" height="48" viewBox="0 0 48 48">
    <g fill="none" fill-rule="evenodd">
        <g fill="#000">
            <path d="M12 6v4h24V6h2v4h7.478l1.501 1.5c-.247 3.006-2.711 5.384-5.754 5.496L41 17h-1v-2h1c1.807 0 3.335-1.199 3.83-2.845l.043-.155H38v25.51l-.412.299C33.746 40.603 29.206 42 24 42c-5.027 0-9.432-1.302-13.188-3.907l-.4-.284-.412-.3V12H3.126l.043.155c.478 1.585 1.912 2.756 3.631 2.84L7 15h1v2H7c-3.08 0-5.619-2.322-5.96-5.31L2.73 10H10V6h2zm24 26H12v4.482l.346.234c3.198 2.105 6.905 3.198 11.143 3.28L24 40c4.452 0 8.328-1.095 11.654-3.284l.346-.234V32zm-16.5 2c.828 0 1.5.672 1.5 1.5s-.672 1.5-1.5 1.5-1.5-.672-1.5-1.5.672-1.5 1.5-1.5zm9 0c.828 0 1.5.672 1.5 1.5s-.672 1.5-1.5 1.5-1.5-.672-1.5-1.5.672-1.5 1.5-1.5zM12 12v18h24v-4.125l-.171-.021c-7.156-.97-12.81-6.673-13.705-13.853L12 12zm24 0H24.142c.877 6.132 5.727 10.981 11.858 11.858V12z"/>
        </g>
    </g>
</svg>
