<svg xmlns="http://www.w3.org/2000/svg" width="48" height="48" viewBox="0 0 48 48">
    <g fill="none" fill-rule="evenodd">
        <g fill="#000">
            <path d="M16.47 5l5.863 11h-2.266l-5.132-9.63-.043.026c-4.398 2.658-7.331 7.327-7.82 12.602l31.839-.033 4.716-8.452 1.746.974-4.41 7.906.005.07c.021.366.032.734.032 1.104 0 5.85-2.663 11.068-6.818 14.446l.106-.008L34.5 35c2.485 0 4.5 2.015 4.5 4.5S36.985 44 34.5 44 30 41.985 30 39.5c0-.804.21-1.558.58-2.211C28.277 38.387 25.709 39 23 39c-2.709 0-5.277-.613-7.581-1.71.37.652.581 1.406.581 2.21 0 2.485-2.015 4.5-4.5 4.5S7 41.985 7 39.5 9.015 35 11.5 35c.107 0 .214.004.319.011C7.663 31.635 5 26.418 5 20.567 5 14.16 8.221 8.338 13.353 5h3.117zM11.5 37C10.12 37 9 38.12 9 39.5s1.12 2.5 2.5 2.5 2.5-1.12 2.5-2.5-1.12-2.5-2.5-2.5zm23 0c-1.38 0-2.5 1.12-2.5 2.5s1.12 2.5 2.5 2.5 2.5-1.12 2.5-2.5-1.12-2.5-2.5-2.5zM22.699 20.981l-15.694.018C7.23 29.88 14.31 37 23 37c5.792 0 10.869-3.162 13.677-7.901L22.7 20.98zm16.296-.016l-12.321.012 10.918 6.34c.855-1.945 1.351-4.092 1.403-6.352z"/>
        </g>
    </g>
</svg>
