<svg xmlns="http://www.w3.org/2000/svg" width="48" height="48" viewBox="0 0 48 48">
    <g fill="none" fill-rule="evenodd">
        <g fill="#000">
            <path d="M16.118 8l1.5 3H31c8.18 0 14.83 6.547 14.997 14.686L46 26c0 7.847-6.043 14.336-13.795 14.952l-.411.026h-.084l-.121-.013-.08-.017-.079-.026-.08-.036-.082-.048-.085-.06-.09-.075-.093-.09-.1-.108-.163-.195-.183-.24-.204-.29-.23-.346-.45-.707-.43-.697-.775-1.29-1.325-2.23 1.72-1.02 1.025 1.718.864 1.423.575.927.25.393.357.55.302.44.16-.015c6.445-.685 11.446-6.068 11.603-12.609L44 26c0-1.026-.119-2.024-.343-2.98l-.034-.137-31.171 18.42L10 39.887V25H4.403L.916 18.522l.58-2.168 6.601-3.713-1.394-2.23L8.095 8h8.023zm-1.237 2H8.803l2.1 3.358-8.057 4.532L5.597 23H12v16.247l30.978-18.305-.057-.135c-1.966-4.507-6.412-7.683-11.614-7.803L31 13H16.382l-1.501-3z"/>
        </g>
    </g>
</svg>
