<svg xmlns="http://www.w3.org/2000/svg" width="32" height="32" viewBox="0 0 32 32">
    <g fill="none" fill-rule="evenodd">
        <g fill="#212121">
            <path d="M17.244 2c1.854.003 2.68.014 3.445.04l.229.008c.266.01.537.022.854.036 1.49.068 2.508.305 3.399.651.92.358 1.7.836 2.48 1.615.778.778 1.256 1.559 1.614 2.48.346.89.583 1.908.65 3.398.017.362.03.664.042.969l.007.23c.023.734.033 1.568.035 3.33l.001.907v1.58c-.003 1.762-.013 2.596-.036 3.33l-.007.23c-.011.304-.025.607-.041.969-.068 1.49-.305 2.508-.651 3.398-.358.92-.836 1.702-1.615 2.48-.778.778-1.559 1.257-2.48 1.615-.89.346-1.908.583-3.398.65-.317.015-.588.027-.854.037l-.229.008c-.765.026-1.59.036-3.445.039h-2.488c-1.854-.003-2.68-.013-3.445-.039l-.229-.008c-.266-.01-.537-.022-.854-.036-1.49-.068-2.508-.305-3.399-.651-.92-.358-1.7-.837-2.48-1.615-.778-.778-1.256-1.56-1.614-2.48-.346-.89-.583-1.908-.65-3.398-.017-.362-.03-.665-.042-.969l-.007-.23c-.023-.734-.033-1.568-.035-3.33v-2.487c.002-1.762.012-2.596.035-3.33l.007-.23c.011-.305.025-.607.041-.969.068-1.49.305-2.508.651-3.398.358-.921.836-1.702 1.615-2.48.778-.779 1.559-1.257 2.48-1.615.89-.346 1.908-.583 3.398-.65.317-.015.588-.027.854-.037l.229-.009c.765-.025 1.59-.036 3.445-.038zm-.276 2.523h-1.936c-2.862.003-3.351.02-4.69.081-1.364.062-2.105.29-2.599.482-.653.254-1.12.558-1.61 1.048s-.793.956-1.047 1.61c-.192.493-.42 1.234-.482 2.599-.06 1.338-.078 1.827-.081 4.69v1.935c.003 2.863.02 3.352.081 4.69.062 1.365.29 2.106.482 2.6.254.653.558 1.12 1.047 1.61.49.49.957.793 1.61 1.046.494.192 1.235.42 2.6.483.369.016.673.03.98.04l.233.008c.783.024 1.691.032 3.78.033h1.327c2.09-.001 2.998-.009 3.781-.033l.232-.007c.308-.011.612-.025.981-.041 1.365-.063 2.106-.29 2.6-.483.653-.253 1.12-.557 1.61-1.047.49-.49.793-.956 1.047-1.61.192-.493.42-1.234.482-2.6.06-1.337.078-1.826.081-4.689v-1.936c-.003-2.862-.02-3.351-.081-4.689-.062-1.365-.29-2.106-.482-2.6-.254-.653-.558-1.12-1.047-1.61-.49-.49-.957-.793-1.61-1.047-.494-.191-1.235-.42-2.6-.482-1.338-.06-1.827-.078-4.689-.081zM16 8.811c3.97 0 7.19 3.219 7.19 7.19 0 3.97-3.22 7.189-7.19 7.189S8.81 19.97 8.81 16c0-3.97 3.22-7.189 7.19-7.189zm0 2.523c-2.577 0-4.667 2.089-4.667 4.666 0 2.578 2.09 4.667 4.667 4.667s4.667-2.09 4.667-4.667-2.09-4.666-4.667-4.666zm7.473-4.487c.928 0 1.68.752 1.68 1.68 0 .928-.752 1.68-1.68 1.68-.928 0-1.68-.752-1.68-1.68 0-.928.752-1.68 1.68-1.68z"/>
        </g>
    </g>
</svg>
