<svg xmlns="http://www.w3.org/2000/svg" width="75" height="30" viewBox="0 0 75 30">
    <g fill="none" fill-rule="evenodd">
        <g fill-rule="nonzero">
            <g>
                <path fill="#FFF" d="M60 2H15C7.82 2 2 7.82 2 15c0 7.077 5.655 12.833 12.693 12.996L15 28h45c7.18 0 13-5.82 13-13 0-7.077-5.655-12.833-12.693-12.996L60 2z" transform="translate(-16 -584) translate(16 584)"/>
                <path fill="#68D1E6" d="M60 0c8.284 0 15 6.716 15 15 0 8.284-6.716 15-15 15H15C6.716 30 0 23.284 0 15 0 6.716 6.716 0 15 0h45zm0 2H15C7.82 2 2 7.82 2 15c0 7.077 5.655 12.833 12.693 12.996L15 28h45c7.18 0 13-5.82 13-13 0-7.077-5.655-12.833-12.693-12.996L60 2z" transform="translate(-16 -584) translate(16 584)"/>
                <path fill="#2BB2CD" d="M24.674 15.148V9.94h-8.932v5.208h8.932zm-1.806-1.456h-5.306v-2.296h5.306v2.296zm-1.75 8.512V17.99h4.956v-1.47H14.398v1.47h4.872v4.214h1.848zm12.97-10.22v-1.442h-2.87V9.226h-1.862v1.316H26.5v1.442h7.588zm2.562 5.502v-3.374h1.708V12.6H36.65V9.324h-1.848v8.162h1.848zm-6.356-.476c.466 0 .893-.056 1.28-.168.388-.112.722-.268 1.002-.469.28-.2.497-.441.65-.721.155-.28.232-.593.232-.938s-.077-.658-.231-.938c-.154-.28-.371-.523-.651-.728-.28-.205-.614-.364-1.001-.476-.388-.112-.815-.168-1.281-.168-.467 0-.894.056-1.281.168-.388.112-.721.27-1.001.476-.28.205-.497.448-.651.728-.154.28-.231.593-.231.938s.077.658.23.938c.155.28.372.52.652.721.28.2.613.357 1 .469.388.112.815.168 1.282.168zm0-1.33c-.42 0-.759-.082-1.015-.245-.257-.163-.385-.404-.385-.721 0-.317.128-.558.385-.721.256-.163.595-.245 1.015-.245.42 0 .758.082 1.015.245.256.163.385.404.385.721 0 .317-.129.558-.385.721-.257.163-.595.245-1.015.245zm2.156 6.524c.662 0 1.262-.051 1.799-.154.536-.103.991-.252 1.365-.448.373-.196.66-.436.86-.721.201-.285.302-.604.302-.959 0-.364-.1-.688-.301-.973-.2-.285-.488-.525-.861-.721-.374-.196-.829-.345-1.365-.448-.537-.103-1.137-.154-1.8-.154-.662 0-1.262.051-1.798.154-.537.103-.992.252-1.365.448-.374.196-.66.436-.861.721-.2.285-.301.609-.301.973 0 .355.1.674.3.959.201.285.488.525.862.721.373.196.828.345 1.365.448.536.103 1.136.154 1.799.154zm0-1.372c-.822 0-1.442-.075-1.862-.224-.42-.15-.63-.378-.63-.686 0-.317.21-.548.63-.693.42-.145 1.04-.217 1.862-.217.821 0 1.442.072 1.862.217.42.145.63.376.63.693 0 .308-.21.537-.63.686-.42.15-1.04.224-1.862.224zm17.142-3.64V9.31h-1.75v3.136h-1.008V9.548h-1.722v7.238h1.722V13.93h1.008v3.262h1.75zm-10.192-.35c.597-.252 1.097-.597 1.498-1.036.401-.439.719-.933.952-1.484.233.467.537.882.91 1.246s.826.653 1.358.868l.98-1.4c-.42-.168-.782-.378-1.085-.63-.303-.252-.553-.53-.749-.833-.196-.303-.338-.625-.427-.966-.089-.34-.133-.684-.133-1.029V10.08h-1.778v1.498c0 .364-.047.733-.14 1.106-.093.373-.24.728-.441 1.064-.2.336-.46.649-.777.938-.317.29-.7.532-1.148.728l.98 1.428zm5.824 5.376c.672 0 1.281-.056 1.827-.168.546-.112 1.013-.27 1.4-.476.387-.205.684-.457.889-.756.205-.299.308-.64.308-1.022 0-.373-.103-.71-.308-1.008-.205-.299-.502-.55-.889-.756-.387-.205-.854-.364-1.4-.476-.546-.112-1.155-.168-1.827-.168-.681 0-1.295.056-1.841.168-.546.112-1.013.27-1.4.476-.387.205-.686.457-.896.756-.21.299-.315.635-.315 1.008 0 .383.105.723.315 1.022.21.299.509.55.896.756.387.205.854.364 1.4.476.546.112 1.16.168 1.841.168zm0-1.4c-.85 0-1.496-.084-1.939-.252-.443-.168-.665-.425-.665-.77 0-.345.222-.602.665-.77.443-.168 1.09-.252 1.939-.252.83 0 1.468.084 1.911.252.443.168.665.425.665.77 0 .345-.222.602-.665.77-.443.168-1.08.252-1.911.252zm16.54 1.372V9.296h-1.75V22.19h1.75zm-2.632-.574V9.52H57.41v4.186h-1.638v1.498h1.638v6.412h1.722zm-7.588-1.82c.588-.364 1.074-.847 1.456-1.449.383-.602.686-1.272.91-2.009.215.681.507 1.293.875 1.834.369.541.843.98 1.421 1.316l1.078-1.344c-.466-.27-.858-.604-1.176-1.001-.317-.397-.574-.833-.77-1.309-.196-.476-.336-.978-.42-1.505-.084-.527-.126-1.062-.126-1.603v-.63h1.876v-1.498h-5.74v1.498H53v.63c0 .55-.044 1.104-.133 1.659-.088.555-.233 1.083-.434 1.582-.2.5-.464.961-.79 1.386-.327.425-.724.786-1.19 1.085l1.091 1.358z" transform="translate(-16 -584) translate(16 584)"/>
            </g>
        </g>
    </g>
</svg>
