<svg xmlns="http://www.w3.org/2000/svg" width="32" height="32" viewBox="0 0 32 32">
    <g fill="none" fill-rule="evenodd">
        <g fill="#212121">
            <path d="M24.682 20.176h-1.86v-4.197c0-.966-.563-1.485-1.428-1.485-.966 0-1.586.591-1.586 1.788v3.894h-1.86V9.912h1.86v3.86c.447-.677 1.168-1.008 2.148-1.008.794 0 1.443.259 1.947.793.52.533.779 1.254.779 2.191v4.428zm-13.375-1.752c1.372 0 2.546-.821 2.899-2.09h2.03c-.496 2.442-2.397 4.043-4.93 4.043-2.942 0-5.275-2.194-5.275-5.249 0-3.054 2.333-5.249 5.276-5.249 2.557 0 4.472 1.633 4.944 4.118h-2.024c-.308-1.351-1.522-2.193-2.92-2.193-1.978 0-3.295 1.411-3.295 3.324 0 1.913 1.497 3.296 3.295 3.296zM16 2.194c-7.732 0-14 5.797-14 12.949 0 5.282 2.212 7.804 5.242 10.102l.015.007v6.198c0 .293.333.46.568.286l5.309-3.944.114.05c.89.164 1.81.25 2.752.25 7.732 0 14-5.797 14-12.95 0-7.151-6.268-12.949-14-12.949z"/>
        </g>
    </g>
</svg>
