<svg xmlns="http://www.w3.org/2000/svg" width="24" height="24" viewBox="0 0 24 24">
    <g fill="none" fill-rule="evenodd">
        <g fill="#000">
            <path d="M8.5 17c.828 0 1.5.672 1.5 1.5S9.328 20 8.5 20 7 19.328 7 18.5 7.672 17 8.5 17zm8 0c.828 0 1.5.672 1.5 1.5s-.672 1.5-1.5 1.5-1.5-.672-1.5-1.5.672-1.5 1.5-1.5zm-8 1c-.276 0-.5.224-.5.5s.224.5.5.5.5-.224.5-.5-.224-.5-.5-.5zm8 0c-.276 0-.5.224-.5.5s.224.5.5.5.5-.224.5-.5-.224-.5-.5-.5zM6.5 5c.171 0 .329.088.42.228l.04.075.729 1.702L7.75 7h9.75c.324 0 .555.3.49.603l-.026.083-2 5c-.065.162-.21.277-.378.307L15.5 13H9.767l-1.333 2h8.316c.245 0 .45.177.492.41l.008.09c0 .245-.177.45-.41.492l-.09.008H7.5c-.37 0-.603-.384-.457-.705l.041-.072 1.849-2.776L6.17 6H4.5c-.245 0-.45-.177-.492-.41L4 5.5c0-.245.177-.45.41-.492L4.5 5h2zm10.261 3H8.115l1.714 4h5.332l1.6-4z"/>
        </g>
    </g>
</svg>
