<svg xmlns="http://www.w3.org/2000/svg" width="72" height="72" viewBox="0 0 72 72">
    <g fill="none" fill-rule="evenodd">
        <g fill="#212121">
            <path d="M28.5 47.5c2.21 0 4 1.79 4 4s-1.79 4-4 4-4-1.79-4-4 1.79-4 4-4zm16 0c2.21 0 4 1.79 4 4s-1.79 4-4 4-4-1.79-4-4 1.79-4 4-4zm-16 3c-.552 0-1 .448-1 1s.448 1 1 1 1-.448 1-1-.448-1-1-1zm16 0c-.552 0-1 .448-1 1s.448 1 1 1 1-.448 1-1-.448-1-1-1zM23 20c.545 0 1.042.295 1.306.763l.066.132L25.742 24H51c1.05 0 1.762 1.046 1.411 2.009l-.05.12-6 13c-.224.487-.69.813-1.216.864L45 40H31.303l-2 3H46.5c.78 0 1.42.595 1.493 1.356L48 44.5c0 .78-.595 1.42-1.356 1.493L46.5 46h-20c-1.154 0-1.859-1.238-1.316-2.22l.068-.112 3.543-5.316L22.022 23H18.5c-.78 0-1.42-.595-1.493-1.356L17 21.5c0-.78.595-1.42 1.356-1.493L18.5 20H23zm25.655 7H27.066l4.412 10H44.04l4.615-10z"/>
        </g>
    </g>
</svg>
